<?xml version="1.0" standalone="no"?>
<!DOCTYPE svg PUBLIC "-//W3C//DTD SVG 20010904//EN"
 "http://www.w3.org/TR/2001/REC-SVG-20010904/DTD/svg10.dtd">
<svg version="1.0" xmlns="http://www.w3.org/2000/svg"
 width="481.000000pt" height="291.000000pt" viewBox="0 0 481.000000 291.000000"
 preserveAspectRatio="xMidYMid meet">

<g transform="translate(0.000000,291.000000) scale(0.100000,-0.100000)"
fill="#000000" stroke="none">
<path d="M2608 2313 c7 -3 16 -2 19 1 4 3 -2 6 -13 5 -11 0 -14 -3 -6 -6z"/>
<path d="M1609 2002 c-52 -27 -120 -65 -152 -86 -82 -53 -236 -204 -289 -283
-104 -155 -137 -251 -145 -413 -6 -134 7 -204 61 -315 191 -389 798 -546 1446
-374 372 99 712 293 944 540 70 74 166 197 166 213 0 3 -20 6 -44 6 -39 0 -46
-4 -70 -40 -79 -120 -243 -271 -403 -373 -396 -252 -925 -337 -1338 -216 -228
68 -436 225 -496 376 -76 190 -64 386 36 588 79 160 167 257 370 409 35 26 11
17 -86 -32z"/>
<path d="M1938 1635 c-3 -3 -34 -12 -69 -20 -61 -13 -62 -13 -21 -14 35 -1 42
-4 42 -21 0 -17 -7 -20 -42 -22 l-43 -1 38 -4 c35 -4 36 -6 26 -26 -6 -12 -25
-38 -43 -57 -32 -35 -12 -25 37 19 l27 25 0 -43 c0 -56 24 -50 28 7 2 23 6 42
10 42 3 0 16 -12 29 -27 21 -26 22 -27 23 -7 0 15 -10 26 -30 34 -42 17 -37
30 10 30 22 0 40 4 40 9 0 13 -28 22 -35 11 -4 -6 -15 -10 -26 -10 -14 0 -19
7 -19 25 0 20 5 25 28 26 15 1 31 1 36 0 5 -1 4 5 -4 13 -12 16 -32 21 -42 11z"/>
<path d="M2110 1551 c0 -85 -1 -91 -21 -91 -19 0 -19 -1 -4 -16 8 -9 22 -13
30 -10 12 4 15 25 15 96 0 49 0 93 1 97 0 4 -4 9 -10 11 -7 2 -11 -27 -11 -87z"/>
<path d="M2280 1626 c0 -10 -13 -16 -37 -19 l-38 -4 38 -1 c27 -2 37 -6 37
-18 0 -12 -7 -15 -30 -12 -29 4 -30 3 -30 -34 0 -36 2 -38 25 -32 33 8 31 -3
-7 -44 -23 -24 -27 -31 -12 -24 11 6 27 19 35 28 13 16 14 15 19 -12 8 -44 25
-35 28 15 3 42 4 43 33 37 27 -5 29 -3 29 24 0 43 -2 45 -32 42 -20 -2 -28 1
-28 12 0 12 10 16 41 16 22 0 38 4 34 9 -3 5 -22 7 -42 4 -31 -5 -35 -4 -30
10 5 12 1 17 -13 17 -11 0 -20 -6 -20 -14z m0 -86 c0 -13 -7 -20 -20 -20 -13
0 -20 7 -20 20 0 13 7 20 20 20 13 0 20 -7 20 -20z m70 0 c0 -13 -7 -20 -20
-20 -13 0 -20 7 -20 20 0 13 7 20 20 20 13 0 20 -7 20 -20z"/>
<path d="M2417 1576 c-19 -44 -22 -55 -9 -40 l18 21 18 -31 18 -31 -31 -27
c-36 -32 -29 -37 13 -9 28 19 28 19 64 -5 39 -27 48 -29 57 -14 3 6 3 10 -2
10 -4 0 -23 9 -40 20 l-33 20 21 40 c14 27 28 40 42 40 20 0 20 1 4 17 -13 13
-19 15 -29 5 -16 -16 -78 -16 -78 1 0 7 5 18 11 24 7 7 6 12 -3 16 -10 3 -23
-15 -41 -57z m83 -19 c0 -7 -6 -21 -13 -32 -13 -17 -15 -17 -30 6 -24 33 -21
39 13 39 18 0 30 -5 30 -13z"/>
<path d="M3230 1615 c0 -22 -4 -25 -34 -25 -19 0 -37 6 -39 13 -3 6 -6 2 -6
-10 -1 -12 -5 -25 -11 -28 -5 -3 -10 -13 -10 -22 0 -13 3 -13 15 -3 8 7 15 19
15 26 0 11 19 14 85 14 68 0 85 -3 85 -15 0 -12 4 -13 25 -3 41 19 14 35 -50
30 -50 -4 -55 -3 -55 16 0 11 6 23 13 25 6 3 2 6 -10 6 -18 1 -23 -5 -23 -24z"/>
<path d="M1560 1480 l0 -150 -56 0 -55 0 3 105 c3 95 1 105 -14 105 -16 0 -18
-13 -18 -136 0 -120 2 -135 15 -124 8 7 15 19 15 26 0 11 25 14 125 14 120 0
125 -1 125 -21 0 -12 5 -19 13 -17 8 3 13 43 17 131 5 116 4 127 -12 127 -16
0 -18 -12 -18 -105 l0 -105 -56 0 -55 0 3 150 c3 137 2 150 -14 150 -16 0 -18
-14 -18 -150z"/>
<path d="M2027 1624 c-4 -4 -7 -38 -7 -76 0 -51 3 -69 13 -66 7 3 13 28 15 68
3 59 -6 89 -21 74z"/>
<path d="M2690 1573 c0 -48 -2 -53 -22 -53 -21 0 -48 -36 -48 -63 0 -19 25 1
30 24 6 24 7 24 139 27 l133 3 -6 -28 -7 -28 24 25 c30 30 20 48 -23 42 -30
-4 -30 -4 -30 42 0 28 4 46 12 46 6 0 8 3 5 7 -4 3 -52 7 -107 7 l-100 1 0
-52z m170 16 c0 -20 -4 -21 -45 -17 -44 5 -45 5 -45 -23 0 -26 -4 -29 -30 -29
-29 0 -30 2 -30 45 l0 45 75 0 c70 0 75 -1 75 -21z m0 -49 c0 -16 -7 -20 -30
-20 -23 0 -30 4 -30 20 0 16 7 20 30 20 23 0 30 -4 30 -20z"/>
<path d="M3020 1447 c0 -139 3 -178 13 -175 9 4 13 49 15 171 2 153 4 167 21
167 28 0 30 -9 14 -55 -13 -39 -13 -47 1 -74 20 -38 20 -77 1 -85 -8 -3 -12
-12 -9 -20 5 -12 11 -13 25 -5 27 14 26 78 -3 114 l-21 27 24 44 c13 24 28 44
33 44 6 0 5 5 -1 11 -6 6 -34 12 -62 13 l-51 1 0 -178z"/>
<path d="M3304 1530 c-5 -5 -43 -11 -84 -13 -70 -3 -69 -3 24 -5 86 -2 97 0
86 13 -15 18 -14 17 -26 5z"/>
<path d="M2344 1469 c15 -12 30 -18 34 -14 9 8 -26 35 -46 35 -9 0 -4 -8 12
-21z"/>
<path d="M2690 1371 c0 -91 2 -102 15 -91 8 7 15 25 15 41 l0 29 70 0 c63 0
70 -2 70 -20 0 -10 -7 -23 -15 -27 -8 -5 -11 -14 -6 -21 6 -9 11 -9 23 1 13 9
17 33 19 101 l3 89 -97 1 -97 1 0 -104z m170 69 c0 -18 -7 -20 -70 -20 -63 0
-70 2 -70 20 0 18 7 20 70 20 63 0 70 -2 70 -20z m-2 -52 c-3 -21 -9 -23 -70
-26 -67 -3 -68 -3 -68 23 0 24 2 25 71 25 67 0 70 -1 67 -22z"/>
<path d="M3325 1461 c-3 -6 -46 -12 -98 -12 -51 -1 -80 -4 -64 -6 21 -3 27
-10 27 -29 0 -43 -27 -90 -64 -113 -48 -30 -46 -36 4 -11 45 23 75 64 85 116
4 25 11 34 25 34 18 0 20 -7 20 -68 0 -78 9 -92 60 -92 48 0 57 9 49 50 -5 29
-7 30 -8 9 -1 -27 -17 -39 -52 -39 -17 0 -19 8 -19 70 l0 70 41 0 c28 0 39 4
37 13 -6 16 -34 21 -43 8z"/>
<path d="M1970 1421 c0 -20 -6 -21 -87 -23 l-88 -2 75 -5 74 -6 -39 -31 c-22
-17 -55 -39 -72 -48 -18 -9 -33 -18 -33 -21 0 -10 66 20 112 51 27 19 52 34
54 34 2 0 4 -23 4 -51 0 -31 4 -48 10 -44 6 3 10 31 10 62 l0 55 39 -35 c52
-47 97 -70 123 -61 17 5 10 10 -36 29 -31 13 -69 31 -84 41 l-27 19 79 5 c70
4 77 7 62 19 -13 11 -20 11 -28 3 -7 -7 -38 -12 -70 -12 -49 0 -58 3 -56 16 2
10 -3 19 -9 21 -8 3 -13 -4 -13 -16z"/>
<path d="M2500 1421 c0 -7 -44 -12 -137 -13 -79 -1 -107 -3 -65 -5 l72 -4 0
-54 c0 -55 0 -55 -31 -55 -30 0 -31 1 -27 40 3 33 0 40 -14 40 -14 0 -18 -8
-18 -39 0 -39 -1 -40 -37 -44 -21 -2 42 -4 140 -5 139 -2 178 1 174 11 -2 6
-13 10 -23 8 -10 -2 -45 -5 -76 -8 l-58 -5 0 56 0 55 67 3 c58 3 64 5 50 17
-11 9 -17 10 -17 2z"/>
<path d="M2470 1360 c-12 -8 -9 -10 13 -10 16 0 26 4 22 10 -8 12 -16 12 -35
0z"/>
</g>
</svg>
